<svg xmlns="http://www.w3.org/2000/svg" xmlns:xlink="http://www.w3.org/1999/xlink" width="63.657" height="63.657"><g><defs><rect id="a" width="63.657" height="63.657"/></defs><clipPath id="b"><use xlink:href="#a" overflow="visible"/></clipPath><path clip-path="url(#b)" fill="#fff" d="M3.414 63.071c-.781.781-2.047.781-2.828 0-.781-.781-.781-2.047 0-2.828l59.657-59.658c.781-.781 2.047-.781 2.828 0 .781.781.781 2.048 0 2.829l-59.657 59.657z"/><path clip-path="url(#b)" fill="#fff" d="M.586 3.414c-.781-.781-.781-2.047 0-2.828.781-.781 2.047-.781 2.828 0l59.659 59.657c.78.781.78 2.047 0 2.828-.781.781-2.049.781-2.829 0l-59.658-59.657z"/></g></svg>